HIERARCHY
ROOT Hips
{
	OFFSET 0.000000 83.214638 0.000000
	CHANNELS 6 Xposition Yposition Zposition Xrotation Yrotation Zrotation
	JOINT Pelvis
	{
		OFFSET 0.000000 0.000000 0.000000
		CHANNELS 3 Xrotation Yrotation Zrotation
		JOINT LeftUpLeg
		{
			OFFSET 8.479700 -4.795502 -0.379100
			CHANNELS 3 Xrotation Yrotation Zrotation
			JOINT LeftLeg
			{
				OFFSET 0.024144 -32.555107 0.112900
				CHANNELS 3 Xrotation Yrotation Zrotation
				JOINT LeftFoot
				{
					OFFSET -0.024144 -32.638630 -3.012600
					CHANNELS 3 Xrotation Yrotation Zrotation
					JOINT LeftToeBase
					{
						OFFSET 0.970200 -13.225400 11.864200
						CHANNELS 3 Xrotation Yrotation Zrotation
						End Site
						{
							OFFSET 0.000000 12.319262 0.000000
						}
					}
					JOINT LFootTongue
					{
						OFFSET 1.142400 -1.059800 6.665200
						CHANNELS 3 Xrotation Yrotation Zrotation
						End Site
						{
							OFFSET 0.000000 12.319262 0.000000
						}
					}
				}
				JOINT LeftPantLeg
				{
					OFFSET 0.918482 -16.533964 -2.284700
					CHANNELS 3 Xrotation Yrotation Zrotation
					End Site
					{
						OFFSET 0.350399 24.744368 0.000000
					}
				}
			}
		}
		JOINT RightUpLeg
		{
			OFFSET -8.479700 -4.795502 -0.379100
			CHANNELS 3 Xrotation Yrotation Zrotation
			JOINT RightLeg
			{
				OFFSET -0.023144 -32.555092 0.112900
				CHANNELS 3 Xrotation Yrotation Zrotation
				JOINT RightFoot
				{
					OFFSET 0.023144 -32.638641 -3.012700
					CHANNELS 3 Xrotation Yrotation Zrotation
					JOINT RightToeBase
					{
						OFFSET -0.970200 -13.225400 11.864200
						CHANNELS 3 Xrotation Yrotation Zrotation
						End Site
						{
							OFFSET 0.000000 12.319244 0.000000
						}
					}
					JOINT RFootTongue
					{
						OFFSET -1.142200 -1.059800 6.665200
						CHANNELS 3 Xrotation Yrotation Zrotation
						End Site
						{
							OFFSET 0.000000 12.319243 0.000000
						}
					}
				}
				JOINT RightPantLeg
				{
					OFFSET -0.919482 -16.533978 -2.284800
					CHANNELS 3 Xrotation Yrotation Zrotation
					End Site
					{
						OFFSET -0.350400 24.744419 0.000000
					}
				}
			}
		}
	}
	JOINT Spine
	{
		OFFSET 0.000000 7.722000 1.166200
		CHANNELS 3 Xrotation Yrotation Zrotation
		JOINT Spine1
		{
			OFFSET 0.000000 12.024101 0.248800
			CHANNELS 3 Xrotation Yrotation Zrotation
			JOINT Spine2
			{
				OFFSET 0.000000 11.502998 -0.491200
				CHANNELS 3 Xrotation Yrotation Zrotation
				JOINT Neck
				{
					OFFSET 0.000000 18.430702 -3.123100
					CHANNELS 3 Xrotation Yrotation Zrotation
					JOINT Head
					{
						OFFSET 0.000000 9.051102 1.034000
						CHANNELS 3 Xrotation Yrotation Zrotation
						JOINT HairB
						{
							OFFSET 0.208400 24.786102 24.822300
							CHANNELS 3 Xrotation Yrotation Zrotation
							End Site
							{
								OFFSET 0.000000 32.263779 0.000000
							}
						}
						JOINT HairA
						{
							OFFSET -7.081100 24.428299 23.196600
							CHANNELS 3 Xrotation Yrotation Zrotation
							End Site
							{
								OFFSET 0.000000 32.263779 0.000000
							}
						}
						JOINT Hat
						{
							OFFSET 16.728800 15.048294 -15.439601
							CHANNELS 3 Xrotation Yrotation Zrotation
							End Site
							{
								OFFSET 0.000000 32.263779 0.000000
							}
						}
					}
				}
				JOINT LeftShoulder
				{
					OFFSET 6.197800 13.665199 -4.064700
					CHANNELS 3 Xrotation Yrotation Zrotation
					JOINT LeftArm
					{
						OFFSET 7.778100 -0.187103 -1.709300
						CHANNELS 3 Xrotation Yrotation Zrotation
						JOINT LeftForeArm
						{
							OFFSET 22.049376 0.000000 0.000000
							CHANNELS 3 Xrotation Yrotation Zrotation
							JOINT LeftHand
							{
								OFFSET 23.009392 0.000000 0.000000
								CHANNELS 3 Xrotation Yrotation Zrotation
								JOINT LeftHandThumb1
								{
									OFFSET 3.507191 -2.063065 3.133727
									CHANNELS 3 Xrotation Yrotation Zrotation
									JOINT LeftHandThumb2
									{
										OFFSET 3.101337 -1.790558 1.790558
										CHANNELS 3 Xrotation Yrotation Zrotation
										JOINT LeftHandThumb3
										{
											OFFSET 3.058640 -1.765907 1.765906
											CHANNELS 3 Xrotation Yrotation Zrotation
											End Site
											{
												OFFSET -0.415260 3.926476 -0.049563
											}
										}
									}
								}
								JOINT LeftHandIndex1
								{
									OFFSET 11.334419 -0.901459 3.706815
									CHANNELS 3 Xrotation Yrotation Zrotation
									JOINT LeftHandIndex2
									{
										OFFSET 3.283112 0.000000 0.000000
										CHANNELS 3 Xrotation Yrotation Zrotation
										JOINT LeftHandIndex3
										{
											OFFSET 3.323853 0.000000 0.000000
											CHANNELS 3 Xrotation Yrotation Zrotation
											End Site
											{
												OFFSET -1.135597 3.097809 0.402452
											}
										}
									}
								}
								JOINT LeftHandMiddle1
								{
									OFFSET 11.335861 0.000000 0.000000
									CHANNELS 3 Xrotation Yrotation Zrotation
									JOINT LeftHandMiddle2
									{
										OFFSET 3.410492 0.000000 0.000000
										CHANNELS 3 Xrotation Yrotation Zrotation
										JOINT LeftHandMiddle3
										{
											OFFSET 3.312172 0.000000 0.000000
											CHANNELS 3 Xrotation Yrotation Zrotation
											End Site
											{
												OFFSET -1.150200 3.080154 0.400270
											}
										}
									}
								}
								JOINT LeftHandRing1
								{
									OFFSET 11.514786 -0.013176 -3.003090
									CHANNELS 3 Xrotation Yrotation Zrotation
									JOINT LeftHandRing2
									{
										OFFSET 3.053307 0.000000 0.000000
										CHANNELS 3 Xrotation Yrotation Zrotation
										JOINT LeftHandRing3
										{
											OFFSET 3.295807 0.000000 0.000000
											CHANNELS 3 Xrotation Yrotation Zrotation
											End Site
											{
												OFFSET -1.281006 3.013344 0.375733
											}
										}
									}
								}
								JOINT LeftHandPinky1
								{
									OFFSET 10.518692 -0.960396 -5.730441
									CHANNELS 3 Xrotation Yrotation Zrotation
									JOINT LeftHandPinky2
									{
										OFFSET 2.861649 0.000000 0.000000
										CHANNELS 3 Xrotation Yrotation Zrotation
										JOINT LeftHandPinky3
										{
											OFFSET 2.863380 0.000000 0.000000
											CHANNELS 3 Xrotation Yrotation Zrotation
											End Site
											{
												OFFSET -0.843597 2.711159 0.369971
											}
										}
									}
								}
							}
							JOINT LSleeve
							{
								OFFSET 6.676277 -0.344902 -1.011730
								CHANNELS 3 Xrotation Yrotation Zrotation
								End Site
								{
									OFFSET 0.000000 14.885353 0.000000
								}
							}
						}
					}
				}
				JOINT RightShoulder
				{
					OFFSET -6.197800 13.665199 -4.064700
					CHANNELS 3 Xrotation Yrotation Zrotation
					JOINT RightArm
					{
						OFFSET -7.778100 -0.187103 -1.709300
						CHANNELS 3 Xrotation Yrotation Zrotation
						JOINT RightForeArm
						{
							OFFSET -22.049376 0.000000 0.000000
							CHANNELS 3 Xrotation Yrotation Zrotation
							JOINT RightHand
							{
								OFFSET -23.009392 0.000000 0.000000
								CHANNELS 3 Xrotation Yrotation Zrotation
								JOINT RightHandThumb1
								{
									OFFSET -3.507191 -2.063065 3.133727
									CHANNELS 3 Xrotation Yrotation Zrotation
									JOINT RightHandThumb2
									{
										OFFSET -3.101337 -1.790558 1.790558
										CHANNELS 3 Xrotation Yrotation Zrotation
										JOINT RightHandThumb3
										{
											OFFSET -3.058640 -1.765907 1.765906
											CHANNELS 3 Xrotation Yrotation Zrotation
											End Site
											{
												OFFSET 0.415260 3.926476 -0.049563
											}
										}
									}
								}
								JOINT RightHandIndex1
								{
									OFFSET -11.334419 -0.901459 3.706815
									CHANNELS 3 Xrotation Yrotation Zrotation
									JOINT RightHandIndex2
									{
										OFFSET -3.283112 0.000000 0.000000
										CHANNELS 3 Xrotation Yrotation Zrotation
										JOINT RightHandIndex3
										{
											OFFSET -3.323853 0.000000 0.000000
											CHANNELS 3 Xrotation Yrotation Zrotation
											End Site
											{
												OFFSET 1.135597 3.097809 0.402452
											}
										}
									}
								}
								JOINT RightHandMiddle1
								{
									OFFSET -11.335861 0.000000 0.000000
									CHANNELS 3 Xrotation Yrotation Zrotation
									JOINT RightHandMiddle2
									{
										OFFSET -3.410492 0.000000 0.000000
										CHANNELS 3 Xrotation Yrotation Zrotation
										JOINT RightHandMiddle3
										{
											OFFSET -3.312172 0.000000 0.000000
											CHANNELS 3 Xrotation Yrotation Zrotation
											End Site
											{
												OFFSET 1.150200 3.080154 0.400270
											}
										}
									}
								}
								JOINT RightHandRing1
								{
									OFFSET -11.514786 -0.013176 -3.003090
									CHANNELS 3 Xrotation Yrotation Zrotation
									JOINT RightHandRing2
									{
										OFFSET -3.053307 0.000000 0.000000
										CHANNELS 3 Xrotation Yrotation Zrotation
										JOINT RightHandRing3
										{
											OFFSET -3.295807 0.000000 0.000000
											CHANNELS 3 Xrotation Yrotation Zrotation
											End Site
											{
												OFFSET 1.281006 3.013344 0.375733
											}
										}
									}
								}
								JOINT RightHandPinky1
								{
									OFFSET -10.518692 -0.960396 -5.730441
									CHANNELS 3 Xrotation Yrotation Zrotation
									JOINT RightHandPinky2
									{
										OFFSET -2.861649 0.000000 0.000000
										CHANNELS 3 Xrotation Yrotation Zrotation
										JOINT RightHandPinky3
										{
											OFFSET -2.863380 0.000000 0.000000
											CHANNELS 3 Xrotation Yrotation Zrotation
											End Site
											{
												OFFSET 0.843597 2.711159 0.369971
											}
										}
									}
								}
							}
							JOINT RSleeve
							{
								OFFSET -6.676277 -0.344902 -1.011730
								CHANNELS 3 Xrotation Yrotation Zrotation
								End Site
								{
									OFFSET 0.000000 14.885353 0.000000
								}
							}
						}
					}
				}
				JOINT Backpack
				{
					OFFSET 0.000000 -2.471497 36.677502
					CHANNELS 3 Xrotation Yrotation Zrotation
					End Site
					{
						OFFSET 0.000000 20.427315 0.000000
					}
				}
				JOINT Hood
				{
					OFFSET 0.000000 18.754097 -10.431000
					CHANNELS 3 Xrotation Yrotation Zrotation
					JOINT Hood1
					{
						OFFSET 0.000000 -5.011002 -7.685901
						CHANNELS 3 Xrotation Yrotation Zrotation
						End Site
						{
							OFFSET 0.000000 9.175140 0.000000
						}
					}
				}
				JOINT LHoodieString
				{
					OFFSET 5.250500 16.397697 3.089900
					CHANNELS 3 Xrotation Yrotation Zrotation
					JOINT LHoodieString1
					{
						OFFSET 0.257700 -6.364304 3.694600
						CHANNELS 3 Xrotation Yrotation Zrotation
						JOINT LHoodieString2
						{
							OFFSET 0.000000 -9.643799 2.679100
							CHANNELS 3 Xrotation Yrotation Zrotation
							End Site
							{
								OFFSET 0.000000 10.009018 0.000000
							}
						}
					}
				}
				JOINT RHoodieString
				{
					OFFSET -5.250500 16.397697 3.089900
					CHANNELS 3 Xrotation Yrotation Zrotation
					JOINT RHoodieString1
					{
						OFFSET -0.257700 -6.364304 3.694600
						CHANNELS 3 Xrotation Yrotation Zrotation
						JOINT RHoodieString2
						{
							OFFSET 0.000000 -9.643799 2.679100
							CHANNELS 3 Xrotation Yrotation Zrotation
							End Site
							{
								OFFSET 0.000000 10.009018 0.000000
							}
						}
					}
				}
			}
			JOINT LBackpack_Strap
			{
				OFFSET 15.223200 -7.719803 -6.610900
				CHANNELS 3 Xrotation Yrotation Zrotation
				End Site
				{
					OFFSET 0.000000 16.040596 0.000000
				}
			}
			JOINT RBackpack_Strap
			{
				OFFSET -15.223000 -7.719803 -6.610900
				CHANNELS 3 Xrotation Yrotation Zrotation
				End Site
				{
					OFFSET 0.000000 16.040596 0.000000
				}
			}
		}
	}
	JOINT BoyFacialAnim_Joint
	{
		OFFSET 1.000000 -82.208099 -1.550900
		CHANNELS 3 Xrotation Yrotation Zrotation
		End Site
		{
			OFFSET 0.000000 30.012791 0.000000
		}
	}
}
MOTION
Frames: 4
Frame Time: 0.033333
1.107559 79.517349 -6.033051 -1.535422 -48.015263 -1.406423 -0.000000 -0.000002 -0.000000 -17.827694 -10.317740 6.819687 55.429635 -8.428640 -9.018990 12.643081 28.002719 -2.025147 0.000001 0.000001 0.000001 0.000001 0.000001 0.000002 0.000001 0.000003 -0.000001 -23.782457 9.829125 4.226698 38.356164 8.129278 -4.692800 -11.640475 -3.154989 -3.269205 -0.000000 -0.000002 0.000001 -0.000000 -0.000002 0.000001 0.000001 0.000000 -0.000000 23.821258 -8.540701 2.723426 -2.596441 -0.749335 -4.515177 -2.657342 -0.946509 -4.445251 -2.062386 -1.892441 3.302732 0.254325 -5.986563 7.550807 -0.000000 0.000001 -0.000000 -0.000000 0.000001 -0.000000 -0.000000 0.000001 -0.000000 0.808935 -7.562012 1.419406 9.251748 -71.481235 -30.104452 -0.000002 -21.347312 0.000003 10.394869 -3.203640 -19.783419 20.800294 8.231011 11.147908 -15.483902 19.389766 0.251312 -0.000002 -0.000001 0.000002 1.049613 3.659216 -32.000765 0.050611 0.834976 -6.936284 -0.000002 0.000003 -0.000001 1.128628 3.782452 -33.218205 0.150627 1.435180 -11.982036 0.000002 0.000001 -0.000001 1.340103 4.086462 -36.299488 0.274070 1.926973 -16.188050 -0.000002 -0.000001 -0.000000 4.345751 7.587259 -40.651182 0.340884 -1.916563 -18.529863 -0.000001 0.000001 -0.000000 0.000001 0.000001 0.000004 4.167357 25.069598 1.287335 34.248358 28.572438 41.173678 0.000011 79.765743 0.000002 6.641811 4.271797 7.372808 -1.973914 -1.390139 -10.836546 10.943146 -28.104002 7.118747 0.000002 0.000001 -0.000002 0.923198 -3.467150 29.811983 0.450663 -2.466865 20.702233 -0.000000 -0.000004 0.000001 0.665451 -2.973219 25.226245 0.528179 -2.662807 22.434719 -0.000001 0.000002 0.000002 0.732745 -3.111859 26.494104 0.592364 -2.813064 23.778148 -0.000001 0.000001 0.000004 1.183796 -3.885891 33.874432 0.615265 -2.864404 24.240580 -0.000004 0.000000 -0.000001 0.000001 0.000001 -0.000000 0.000003 0.000003 0.000000 0.000003 0.000003 0.000000 0.000003 0.000003 0.000000 0.000003 0.000003 0.000000 0.000003 0.000003 0.000001 0.000001 0.000000 0.000000 0.000003 0.000003 0.000000 0.000003 0.000003 0.000001 0.000001 0.000000 0.000000 0.000002 0.000001 -0.000001 0.000002 0.000001 -0.000001 -0.000000 -0.000002 -0.000000 
-0.442535 78.846977 -6.347053 -5.957249 -54.935731 -8.949339 0.000000 0.000001 0.000000 -25.712368 -8.729847 9.675034 69.776277 -8.530074 -7.571155 15.134625 21.404843 2.035092 -0.000001 0.000001 0.000001 -0.000001 0.000001 -0.000000 0.000003 0.000001 -0.000001 -22.665686 6.528359 8.044145 38.748042 8.839026 -2.799863 -10.781843 3.513620 -4.846833 0.000000 -0.000001 0.000001 0.000000 -0.000001 0.000001 0.000003 -0.000002 0.000000 22.975293 -4.592373 2.586268 -1.828779 -0.285377 -4.372848 -1.858379 -0.466507 -4.344222 -1.782342 -1.761800 3.437873 1.672731 -5.061084 7.699814 0.000000 0.000001 -0.000001 0.000000 0.000001 -0.000001 0.000000 0.000001 -0.000001 0.768235 -6.467990 -0.488219 12.239543 -64.234412 -35.738340 -0.000001 -21.354540 0.000005 5.131174 2.407727 -13.384390 20.800284 8.231009 11.147909 -15.483895 19.389768 0.251307 0.000001 -0.000001 -0.000000 1.116707 3.764225 -33.037103 0.087759 1.098068 -9.138780 -0.000003 -0.000001 -0.000000 1.237468 3.943296 -34.833767 0.217567 1.720525 -14.412678 0.000004 0.000003 0.000003 1.516868 4.316156 -38.711928 0.380397 2.261088 -19.097480 -0.000002 -0.000001 -0.000001 4.799880 7.723451 -44.059160 0.476616 -1.547011 -21.788286 0.000000 0.000000 -0.000004 -0.000002 0.000001 -0.000001 4.185227 23.377740 2.419492 22.859101 30.676944 50.063022 -0.002072 90.942131 0.002103 2.142596 2.360788 7.115736 -1.973896 -1.390160 -10.836584 10.943140 -28.103997 7.118745 -0.000000 0.000001 0.000000 0.796049 -3.235547 27.637242 0.378246 -2.266226 18.948970 -0.000000 0.000001 0.000004 0.573315 -2.769498 23.387230 0.454129 -2.476084 20.783185 0.000001 0.000001 0.000002 0.631453 -2.900047 24.562547 0.519935 -2.642774 22.256614 0.000002 0.000004 -0.000002 1.021697 -3.633337 31.402659 0.552799 -2.721587 22.958626 0.000000 0.000003 0.000001 -0.000000 0.000005 -0.000001 -0.000001 -0.000003 0.000001 -0.000001 -0.000003 0.000001 -0.000001 -0.000003 0.000001 -0.000001 -0.000003 0.000001 -0.000001 -0.000003 0.000001 -0.000001 0.000001 -0.000000 -0.000001 -0.000003 0.000001 -0.000001 -0.000003 0.000001 -0.000001 0.000001 -0.000000 0.000001 0.000001 -0.000001 0.000001 0.000001 -0.000001 0.000000 0.000001 0.000000 
-1.830340 78.240654 -6.557805 -12.225555 -61.343698 -18.012816 -0.000000 0.000001 -0.000000 -33.203346 -10.036940 11.157652 80.065588 -8.677182 -7.950273 14.732242 12.760379 5.690377 0.000001 0.000001 -0.000001 0.000001 0.000001 -0.000001 -0.000001 0.000001 -0.000000 -20.645032 5.063921 11.885279 38.625864 9.113202 -1.547986 -10.253795 8.730248 -6.153791 0.000001 0.000003 -0.000000 0.000001 0.000003 -0.000000 0.000000 0.000002 -0.000000 21.624901 -0.622831 3.323128 -1.049065 0.191794 -4.652378 -1.051318 0.013048 -4.655469 -1.091509 -1.764509 4.040432 3.006670 -4.249320 7.701949 0.000000 0.000001 -0.000000 0.000000 0.000001 -0.000000 0.000000 0.000001 -0.000000 0.729213 -5.428986 -1.888068 14.920034 -56.312389 -40.527921 0.000001 -21.518578 -0.000004 1.175047 7.310989 -2.082608 20.800279 8.231012 11.147908 -15.483899 19.389766 0.251312 0.000000 -0.000001 0.000001 1.023133 3.616563 -31.583259 0.101245 1.178852 -9.817749 -0.000001 0.000002 -0.000001 1.199065 3.887658 -34.271345 0.249379 1.839855 -15.437010 0.000004 -0.000001 -0.000002 1.539204 4.343811 -39.007774 0.445876 2.441844 -20.693187 0.000004 0.000002 -0.000004 4.941440 7.760003 -45.110029 0.580062 -1.302054 -23.988946 -0.000005 0.000000 -0.000002 -0.000001 -0.000001 0.000001 4.317607 21.654702 3.946931 10.007316 30.288641 58.530589 0.000228 101.033934 -0.000241 -2.177585 -3.804219 8.044891 -1.973927 -1.390158 -10.836552 10.943139 -28.103992 7.118745 0.000000 0.000002 -0.000003 0.746086 -3.138487 26.739026 0.319580 -2.087696 17.404852 -0.000000 -0.000001 -0.000002 0.523741 -2.652073 22.339155 0.391438 -2.304227 19.279679 -0.000000 0.000004 0.000002 0.560255 -2.739153 23.115614 0.446811 -2.456674 20.612823 0.000001 0.000001 -0.000001 0.888077 -3.405250 29.226287 0.472554 -2.523964 21.204894 0.000000 -0.000001 -0.000002 0.000000 0.000000 -0.000000 0.000000 -0.000001 0.000000 0.000000 -0.000001 0.000000 0.000000 -0.000001 0.000000 0.000000 -0.000001 0.000000 0.000000 -0.000001 0.000002 0.000000 -0.000003 0.000002 0.000000 -0.000001 0.000000 0.000000 -0.000001 0.000002 0.000000 -0.000003 0.000002 -0.000000 -0.000001 -0.000000 -0.000000 -0.000001 -0.000000 -0.000000 0.000001 -0.000000 
-2.934561 77.845642 -6.676404 -20.782454 -66.754451 -28.618650 -0.000001 -0.000000 -0.000000 -39.925997 -12.252531 10.788621 84.355268 -8.920343 -9.468249 13.525800 5.563330 6.777523 0.000004 0.000000 -0.000001 0.000004 0.000000 -0.000001 0.000002 -0.000001 0.000001 -18.276529 5.599584 15.314008 37.659563 9.438213 -1.271136 -10.025333 11.896145 -6.030347 -0.000000 0.000002 0.000000 -0.000000 0.000002 0.000000 -0.000000 0.000001 -0.000001 20.715161 3.082852 4.290210 -0.731123 0.649292 -4.971255 -0.701073 0.465425 -4.997859 0.070623 -1.774241 4.695326 4.209002 -3.566367 7.545724 -0.000000 0.000002 0.000000 -0.000000 0.000002 0.000000 -0.000000 0.000002 0.000000 0.688332 -4.420445 -2.741992 16.034019 -48.194214 -45.643429 0.000023 -21.266719 0.000016 -3.161286 10.678257 9.649516 20.800286 8.231001 11.147912 -15.483899 19.389765 0.251310 -0.000000 0.000003 0.000002 0.808537 3.242390 -27.997188 0.082673 1.065923 -8.869015 -0.000002 -0.000001 -0.000002 1.021093 3.613262 -31.551185 0.232756 1.778567 -14.910294 -0.000000 0.000001 -0.000001 1.397994 4.163917 -37.104227 0.449397 2.451140 -20.775680 0.000003 -0.000001 0.000001 4.743813 7.708211 -43.641661 0.613891 -1.227256 -24.668538 0.000001 -0.000002 -0.000001 -0.000001 -0.000001 0.000002 4.554447 20.682694 5.316108 -3.351698 26.734836 65.836555 0.000052 108.807905 -0.000040 -3.014647 -11.517683 5.642255 -1.973905 -1.390147 -10.836580 10.943139 -28.103997 7.118745 -0.000001 0.000003 0.000001 0.760037 -3.165948 26.992503 0.296746 -2.013391 16.766118 -0.000003 -0.000000 0.000005 0.519967 -2.642815 22.256851 0.361412 -2.216609 18.518653 0.000001 0.000001 0.000002 0.539334 -2.689593 22.673224 0.400367 -2.329643 19.500969 -0.000000 0.000000 0.000002 0.835378 -3.309442 28.326210 0.406851 -2.347823 19.659542 0.000002 -0.000001 0.000000 0.000002 -0.000000 -0.000000 0.000000 0.000000 -0.000002 0.000000 0.000000 -0.000002 0.000000 0.000000 -0.000002 0.000000 0.000000 -0.000002 0.000000 0.000000 -0.000001 -0.000001 0.000001 -0.000000 0.000000 0.000000 -0.000002 0.000000 0.000000 -0.000001 -0.000001 0.000001 -0.000000 0.000000 0.000001 -0.000001 0.000000 0.000001 -0.000001 -0.000001 -0.000000 -0.000000 
